<svg width="671" height="671" viewBox="0 0 671 671" fill="none" xmlns="http://www.w3.org/2000/svg">
<path d="M32.3278 191.811C-0.122034 260.277 -8.44155 337.711 8.7236 411.508C25.8888 485.305 67.5278 551.119 126.862 598.236C185.418 644.735 257.804 670.322 332.517 670.986C332.832 670.995 333.149 671 333.467 671H363.967C364.664 671 365.356 670.978 366.042 670.935C381.73 670.439 397.211 667.109 411.734 661.094C427.522 654.554 441.868 644.969 453.952 632.885C466.036 620.801 475.621 606.455 482.161 590.666C488.701 574.878 492.067 557.956 492.067 540.867C492.067 523.777 488.701 506.855 482.161 491.067C475.621 475.278 466.036 460.932 453.952 448.849C441.868 436.765 427.522 427.179 411.734 420.639C401.073 416.224 386.094 414.034 375.538 412.821C363.784 411.471 351.559 410.733 343.634 410.733C342.606 410.733 341.589 410.781 340.585 410.874C339.58 410.781 338.563 410.733 337.534 410.733C332.345 410.733 318.82 410.171 305.029 408.979C298.21 408.389 291.801 407.685 286.644 406.902C282.975 406.345 280.967 405.893 280.177 405.715C279.907 405.654 279.779 405.625 279.776 405.636C279.774 405.641 279.812 405.66 279.888 405.692C272.077 402.424 264.979 397.663 258.991 391.676C252.949 385.634 248.157 378.461 244.887 370.567C241.617 362.672 239.934 354.211 239.934 345.667C239.934 337.122 241.617 328.661 244.887 320.767C248.157 312.872 252.949 305.7 258.991 299.658C265.033 293.616 272.206 288.823 280.101 285.553C287.995 282.283 296.456 280.6 305 280.6L305.11 280.6H416.834C434.801 280.6 449.367 266.034 449.367 248.067C449.367 230.099 434.801 215.533 416.834 215.533H302.967C302.271 215.533 301.579 215.555 300.893 215.598C285.205 216.094 269.723 219.424 255.201 225.439C239.412 231.979 225.066 241.565 212.982 253.649C200.898 265.733 191.313 280.078 184.773 295.867C178.233 311.655 174.867 328.577 174.867 345.667C174.867 362.756 178.233 379.678 184.773 395.466C191.313 411.255 200.898 425.601 212.982 437.685C225.066 449.769 239.412 459.354 255.201 465.894C262.204 468.795 270.811 470.311 276.882 471.232C283.935 472.303 291.854 473.149 299.423 473.803C314.41 475.099 329.905 475.8 337.534 475.8C338.562 475.8 339.579 475.752 340.583 475.659C341.587 475.752 342.605 475.8 343.634 475.8C348.525 475.8 358.205 476.325 368.111 477.463C372.984 478.023 377.492 478.684 381.194 479.403C384.866 480.116 386.547 480.661 386.802 480.743C386.832 480.753 386.842 480.756 386.834 480.753C394.728 484.023 401.901 488.816 407.943 494.858C413.985 500.9 418.778 508.072 422.047 515.967C425.317 523.861 427 532.322 427 540.867C427 549.411 425.317 557.872 422.047 565.766C418.778 573.661 413.985 580.834 407.943 586.876C401.901 592.918 394.728 597.71 386.834 600.98C378.939 604.25 370.478 605.933 361.934 605.933C361.892 605.933 361.849 605.933 361.807 605.933H335.655L335.5 605.933C274.427 605.933 215.153 585.261 167.325 547.281C119.498 509.302 85.9346 456.252 72.0984 396.767C58.2623 337.282 64.9683 274.866 91.1249 219.678C117.281 164.49 161.348 119.78 216.152 92.8273C270.955 65.8745 333.269 58.2656 392.947 71.2391C452.626 84.2126 506.157 117.005 544.825 164.277C583.493 211.549 605.021 270.518 605.905 331.585C606.789 392.651 586.977 452.219 549.694 500.591C538.725 514.822 541.37 535.25 555.601 546.219C569.832 557.188 590.261 554.543 601.23 540.312C647.483 480.301 672.062 406.402 670.965 330.643C669.868 254.884 643.16 181.727 595.188 123.08C547.217 64.4343 480.807 23.7524 406.769 7.6575C332.732 -8.43744 255.426 1.00225 187.436 34.4399C119.447 67.8776 64.7777 123.344 32.3278 191.811Z" fill="white"/>
</svg>
